<svg version="1.1" viewBox="0.0 0.0 336.0 192.0" fill="none" stroke="none" stroke-linecap="square" stroke-miterlimit="10" xmlns:xlink="http://www.w3.org/1999/xlink" xmlns="http://www.w3.org/2000/svg"><clipPath id="p.0"><path d="m0 0l336.0 0l0 192.0l-336.0 0l0 -192.0z" clip-rule="nonzero"/></clipPath><g clip-path="url(#p.0)"><path fill="#000000" fill-opacity="0.0" d="m0 0l336.0 0l0 192.0l-336.0 0z" fill-rule="evenodd"/><path fill="#000000" fill-opacity="0.0" d="m-0.28346458 12.503937l336.0 0l0 166.99213l-336.0 0z" fill-rule="evenodd"/><path fill="#d9d9d9" d="m130.77904 33.883934l0 66.125l7.1875 0l0 22.5625l-7.1875 0l0 17.812508l-30.5625 0l0 -17.812508l-30.0 0l0 -20.328125l22.546875 -68.359375l38.015625 0zm-30.5625 66.125l2.65625 -40.40625l-7.703125 40.40625l5.046875 0zm102.5625 -29.21875l0 33.75q0 11.8125 -1.359375 17.53125q-1.359375 5.71875 -5.734375 10.796883q-4.375 5.0625 -10.484375 7.265625q-6.109375 2.1875 -13.453125 2.1875q-9.515625 0 -16.09375 -2.296875q-6.5625 -2.296875 -10.53125 -7.21875q-3.953125 -4.9375076 -5.59375 -10.281258q-1.625 -5.34375 -1.625 -16.421875l0 -35.3125q0 -14.390625 2.640625 -22.0q2.640625 -7.609375 10.53125 -12.21875q7.890625 -4.625 18.796875 -4.625q8.875 0 16.0 3.15625q7.125 3.15625 10.765625 7.84375q3.640625 4.6875 4.890625 10.375q1.25 5.6875 1.25 17.46875zm-30.5625 -8.5q0 -7.5625 -0.375 -8.515625q-0.359375 -0.953125 -1.40625 -0.953125q-1.046875 0 -1.515625 1.09375q-0.453125 1.09375 -0.453125 8.375l0 49.375q0 8.21875 0.359375 9.0q0.359375 0.78125 1.484375 0.78125q1.03125 0 1.46875 -1.0625q0.4375 -1.0625 0.4375 -7.96875l0 -50.125zm91.124985 -28.40625l0 66.125l7.1875 0l0 22.5625l-7.1875 0l0 17.812508l-30.562485 0l0 -17.812508l-30.0 0l0 -20.328125l22.546875 -68.359375l38.01561 0zm-30.562485 66.125l2.65625 -40.40625l-7.703125 40.40625l5.046875 0z" fill-rule="nonzero"/></g></svg>