<svg version="1.1" viewBox="0.0 0.0 961.6246719160105 203.50393700787401" fill="none" stroke="none" stroke-linecap="square" stroke-miterlimit="10" xmlns:xlink="http://www.w3.org/1999/xlink" xmlns="http://www.w3.org/2000/svg"><clipPath id="p.0"><path d="m0 0l961.6247 0l0 203.50394l-961.6247 0l0 -203.50394z" clip-rule="nonzero"/></clipPath><g clip-path="url(#p.0)"><path fill="#000000" fill-opacity="0.0" d="m0 0l961.6247 0l0 203.50394l-961.6247 0z" fill-rule="evenodd"/><path fill="#efefef" d="m0 53.07874l88.062996 0l0 150.4252l-88.062996 0z" fill-rule="evenodd"/><path stroke="#efefef" stroke-width="1.0" stroke-linejoin="round" stroke-linecap="butt" d="m0 53.07874l88.062996 0l0 150.4252l-88.062996 0z" fill-rule="evenodd"/><path fill="#efefef" d="m88.062996 121.48819l55.937004 0l0 82.04724l-55.937004 0z" fill-rule="evenodd"/><path stroke="#efefef" stroke-width="1.0" stroke-linejoin="round" stroke-linecap="butt" d="m88.062996 121.48819l55.937004 0l0 82.04724l-55.937004 0z" fill-rule="evenodd"/><path fill="#efefef" d="m144.0 94.490814l30.83464 0l0 109.03937l-30.83464 0z" fill-rule="evenodd"/><path stroke="#efefef" stroke-width="1.0" stroke-linejoin="round" stroke-linecap="butt" d="m144.0 94.490814l30.83464 0l0 109.03937l-30.83464 0z" fill-rule="evenodd"/><path fill="#efefef" d="m174.83464 142.05774l44.346466 0l0 61.448822l-44.346466 0z" fill-rule="evenodd"/><path stroke="#efefef" stroke-width="1.0" stroke-linejoin="round" stroke-linecap="butt" d="m174.83464 142.05774l44.346466 0l0 61.448822l-44.346466 0z" fill-rule="evenodd"/><path fill="#efefef" d="m219.1811 108.632545l66.866135 0l0 94.89764l-66.866135 0z" fill-rule="evenodd"/><path stroke="#efefef" stroke-width="1.0" stroke-linejoin="round" stroke-linecap="butt" d="m219.1811 108.632545l66.866135 0l0 94.89764l-66.866135 0z" fill-rule="evenodd"/><path fill="#efefef" d="m286.04724 70.708664l88.06299 0l0 132.8189l-88.06299 0z" fill-rule="evenodd"/><path stroke="#efefef" stroke-width="1.0" stroke-linejoin="round" stroke-linecap="butt" d="m286.04724 70.708664l88.06299 0l0 132.8189l-88.06299 0z" fill-rule="evenodd"/><path fill="#efefef" d="m813.78217 15.427821l147.84253 0l0 188.09448l-147.84253 0z" fill-rule="evenodd"/><path stroke="#efefef" stroke-width="1.0" stroke-linejoin="round" stroke-linecap="butt" d="m813.78217 15.427821l147.84253 0l0 188.09448l-147.84253 0z" fill-rule="evenodd"/><path fill="#efefef" d="m757.84515 112.490814l55.93701 0l0 91.055115l-55.93701 0z" fill-rule="evenodd"/><path stroke="#efefef" stroke-width="1.0" stroke-linejoin="round" stroke-linecap="butt" d="m757.84515 112.490814l55.93701 0l0 91.055115l-55.93701 0z" fill-rule="evenodd"/><path fill="#efefef" d="m690.979 94.49606l66.86615 0l0 109.03937l-66.86615 0z" fill-rule="evenodd"/><path stroke="#efefef" stroke-width="1.0" stroke-linejoin="round" stroke-linecap="butt" d="m690.979 94.49606l66.86615 0l0 109.03937l-66.86615 0z" fill-rule="evenodd"/><path fill="#efefef" d="m660.14435 130.48819l30.834656 0l0 73.03937l-30.834656 0z" fill-rule="evenodd"/><path stroke="#efefef" stroke-width="1.0" stroke-linejoin="round" stroke-linecap="butt" d="m660.14435 130.48819l30.834656 0l0 73.03937l-30.834656 0z" fill-rule="evenodd"/><path fill="#efefef" d="m607.44354 81.63517l52.692932 0l0 121.88976l-52.692932 0z" fill-rule="evenodd"/><path stroke="#efefef" stroke-width="1.0" stroke-linejoin="round" stroke-linecap="butt" d="m607.44354 81.63517l52.692932 0l0 121.88976l-52.692932 0z" fill-rule="evenodd"/><path fill="#efefef" d="m475.66928 116.34646l131.77951 0l0 87.1811l-131.77951 0z" fill-rule="evenodd"/><path stroke="#efefef" stroke-width="1.0" stroke-linejoin="round" stroke-linecap="butt" d="m475.66928 116.34646l131.77951 0l0 87.1811l-131.77951 0z" fill-rule="evenodd"/><path fill="#efefef" d="m374.11023 102.20473l102.834656 0l0 101.32283l-102.834656 0z" fill-rule="evenodd"/><path stroke="#efefef" stroke-width="1.0" stroke-linejoin="round" stroke-linecap="butt" d="m374.11023 102.20473l102.834656 0l0 101.32283l-102.834656 0z" fill-rule="evenodd"/></g></svg>