<svg version="1.1" viewBox="0.0 0.0 336.0 192.0" fill="none" stroke="none" stroke-linecap="square" stroke-miterlimit="10" xmlns:xlink="http://www.w3.org/1999/xlink" xmlns="http://www.w3.org/2000/svg"><clipPath id="p.0"><path d="m0 0l336.0 0l0 192.0l-336.0 0l0 -192.0z" clip-rule="nonzero"/></clipPath><g clip-path="url(#p.0)"><path fill="#000000" fill-opacity="0.0" d="m0 0l336.0 0l0 192.0l-336.0 0z" fill-rule="evenodd"/><path fill="#000000" fill-opacity="0.0" d="m-0.28346458 12.503937l336.0 0l0 166.99213l-336.0 0z" fill-rule="evenodd"/><path fill="#efefef" d="m30.154036 33.883934l22.343748 0q19.406254 0 26.671879 1.90625q7.28125 1.890625 11.296875 6.484375q4.015625 4.578125 4.96875 9.96875q0.96875 5.375 0.96875 19.984375l0 35.4375q0 13.984375 -1.453125 19.171875q-1.4375 5.1718826 -5.203125 8.234383q-3.75 3.046875 -8.890625 4.1875q-5.140625 1.125 -14.859375 1.125l-35.84375 0l0 -106.50001zm31.624998 22.625l0 61.25q1.5 0 2.2500038 -1.296875q0.75 -1.3125 0.75 -10.734375l0 -39.3125q0 -6.578125 -0.28125 -7.796875q-0.265625 -1.234375 -1.0312538 -1.671875q-0.75 -0.4375 -1.6875 -0.4375zm39.125004 -22.625l49.1875 0l0 25.5625l-17.5625 0l0 13.875l16.4375 0l0 24.5625l-16.4375 0l0 16.9375l19.3125 0l0 25.562508l-50.9375 0l0 -106.50001zm139.6875 0l0 106.50001l-28.3125 0l2.65625 -70.96876l-6.859375 70.96876l-20.9375 0l-7.390625 -69.40626l2.65625 69.40626l-28.3125 0l0 -106.50001l38.96875 0q1.875 11.390625 3.5625 23.796875l1.0 26.109375l3.65625 -49.90625l39.3125 0zm70.687485 61.90625q0 15.40625 -0.765625 22.171875q-0.765625 6.75 -4.96875 12.578133q-4.1875 5.828125 -11.21875 8.90625q-7.015625 3.0625 -16.140625 3.0625q-8.65625 0 -15.703125 -2.890625q-7.0468597 -2.90625 -11.42186 -8.796875q-4.359375 -5.8906326 -5.171875 -12.562508q-0.796875 -6.6875 -0.796875 -22.46875l0 -17.3125q0 -15.40625 0.765625 -22.15625q0.765625 -6.765625 4.953125 -12.59375q4.203125 -5.828125 11.218735 -8.890625q7.03125 -3.078125 16.15625 -3.078125q8.65625 0 15.703125 2.90625q7.046875 2.890625 11.40625 8.78125q4.375 5.890625 5.171875 12.578125q0.8125 6.671875 0.8125 22.453125l0 17.3125zm-31.625 -33.25q0 -6.5625 -0.359375 -7.453125q-0.34375 -0.890625 -0.984375 -0.890625q-0.65625 0 -1.125 0.6875q-0.46875 0.671875 -0.46875 7.65625l0 47.25q0 8.359375 0.328125 9.328125q0.34375 0.953125 1.078125 0.953125q0.734375 0 1.125 -1.25q0.40625 -1.25 0.40625 -9.78125l0 -46.5z" fill-rule="nonzero"/></g></svg>