<svg version="1.1" viewBox="0.0 0.0 288.0 288.0" fill="none" stroke="none" stroke-linecap="square" stroke-miterlimit="10" xmlns:xlink="http://www.w3.org/1999/xlink" xmlns="http://www.w3.org/2000/svg"><clipPath id="p.0"><path d="m0 0l288.0 0l0 288.0l-288.0 0l0 -288.0z" clip-rule="nonzero"/></clipPath><g clip-path="url(#p.0)"><path fill="#000000" fill-opacity="0.0" d="m0 0l288.0 0l0 288.0l-288.0 0z" fill-rule="evenodd"/><path fill="#d81e1e" d="m159.24654 259.979l0 0c-48.018333 0 -86.944885 -38.031128 -86.944885 -84.944885c0 -46.913757 38.92655 -84.94488 86.944885 -84.94488l0 42.472435c-24.561447 0 -44.472443 19.015564 -44.472443 42.472443c0 23.456879 19.910995 42.472443 44.472443 42.472443z" fill-rule="evenodd"/><path stroke="#d81e1e" stroke-width="1.0" stroke-linejoin="round" stroke-linecap="butt" d="m159.24654 259.979l0 0c-48.018333 0 -86.944885 -38.031128 -86.944885 -84.944885c0 -46.913757 38.92655 -84.94488 86.944885 -84.94488l0 42.472435c-24.561447 0 -44.472443 19.015564 -44.472443 42.472443c0 23.456879 19.910995 42.472443 44.472443 42.472443z" fill-rule="evenodd"/><path fill="#d81e1e" d="m137.4595 28.018373l0 0c48.018326 0 86.944885 38.03112 86.944885 84.944885c0 46.913757 -38.92656 84.944885 -86.944885 84.944885l0 -42.472443c24.561447 0 44.472443 -19.015564 44.472443 -42.472443c0 -23.456886 -19.910995 -42.472443 -44.472443 -42.472443z" fill-rule="evenodd"/><path stroke="#d81e1e" stroke-width="1.0" stroke-linejoin="round" stroke-linecap="butt" d="m137.4595 28.018373l0 0c48.018326 0 86.944885 38.03112 86.944885 84.944885c0 46.913757 -38.92656 84.944885 -86.944885 84.944885l0 -42.472443c24.561447 0 44.472443 -19.015564 44.472443 -42.472443c0 -23.456886 -19.910995 -42.472443 -44.472443 -42.472443z" fill-rule="evenodd"/></g></svg>